<?xml version="1.0" encoding="UTF-8" standalone="no"?>


<!-- Uploaded to: SVG Repo, www.svgrepo.com, Generator: SVG Repo Mixer Tools -->
<svg 
   xmlns:dc="http://purl.org/dc/elements/1.1/"
   xmlns:cc="http://creativecommons.org/ns#"
   xmlns:rdf="http://www.w3.org/1999/02/22-rdf-syntax-ns#"
   xmlns:svg="http://www.w3.org/2000/svg"
   xmlns="http://www.w3.org/2000/svg"
   xmlns:sodipodi="http://sodipodi.sourceforge.net/DTD/sodipodi-0.dtd"
   xmlns:inkscape="http://www.inkscape.org/namespaces/inkscape"
   width="30"
   height="30"
   viewBox="0 0 30 30"
   version="1.1"
   id="svg822"
   inkscape:version="0.92.4 (f8dce91, 2019-08-02)"
   sodipodi:docname="do-not-track.svg">
  <defs
     id="defs816" />
  <sodipodi:namedview
     id="base"
     pagecolor="#ffffff"
     bordercolor="#666666"
     borderopacity="1.0"
     inkscape:pageopacity="0.0"
     inkscape:pageshadow="2"
     inkscape:zoom="17.833333"
     inkscape:cx="15"
     inkscape:cy="15"
     inkscape:document-units="px"
     inkscape:current-layer="layer1"
     showgrid="true"
     units="px"
     inkscape:window-width="1366"
     inkscape:window-height="713"
     inkscape:window-x="0"
     inkscape:window-y="0"
     inkscape:window-maximized="1"
     showguides="true"
     inkscape:guide-bbox="true">
    <inkscape:grid
       type="xygrid"
       id="grid816" />
    <sodipodi:guide
       position="14,30"
       orientation="0,1"
       id="guide888"
       inkscape:locked="false" />
    <sodipodi:guide
       position="3,22"
       orientation="1,0"
       id="guide1096"
       inkscape:locked="false" />
    <sodipodi:guide
       position="27,19"
       orientation="1,0"
       id="guide1098"
       inkscape:locked="false" />
  </sodipodi:namedview>
  <metadata
     id="metadata819">
    <rdf:RDF>
      <cc:Work
         rdf:about="">
        <dc:format>image/svg+xml</dc:format>
        <dc:type
           rdf:resource="http://purl.org/dc/dcmitype/StillImage" />
        <dc:title>
</dc:title>
      </cc:Work>
    </rdf:RDF>
  </metadata>
  <g
     inkscape:label="Layer 1"
     inkscape:groupmode="layer"
     id="layer1"
     transform="translate(0,-289.0625)">
    <path
       style="opacity:1;fill:#000000;fill-opacity:1;stroke:none;stroke-width:2;stroke-miterlimit:4;stroke-dasharray:none;stroke-opacity:0.78082192"
       d="m 15.554685,293.0625 c -1.932997,0 -3.5,3.134 -3.5,7 0,0.34268 0.02841,0.6705 0.05469,1 H 19 c 0.02628,-0.3295 0.05469,-0.65732 0.05469,-1 0,-3.866 -1.567003,-7 -3.5,-7 z m -3.119141,10 c 0.605784,2.35839 1.857289,4 3.119141,4 1.261852,0 2.513357,-1.64161 3.119141,-4 z"
       id="path1110"
       inkscape:connector-curvature="0" />
    <path
       inkscape:connector-curvature="0"
       id="path1118"
       d="m 5.4404822,302.25189 c -1.9037419,0.33568 -2.9027836,3.69437 -2.2314205,7.50186 0.059509,0.33749 0.144415,0.65542 0.2275177,0.97537 l 6.7863386,-1.19661 c -0.03134,-0.32908 -0.06028,-0.65687 -0.119797,-0.99437 -0.6713635,-3.80749 -2.7588956,-6.62194 -4.6626374,-6.28625 z M 4.105132,312.64221 c 1.0061693,2.21749 2.5238125,3.61692 3.7665669,3.39779 1.2427543,-0.21912 2.1902391,-2.05323 2.3773011,-4.48112 z"
       style="opacity:1;fill:#000000;fill-opacity:1;stroke:none;stroke-width:2;stroke-miterlimit:4;stroke-dasharray:none;stroke-opacity:0.78082192" />
    <path
       style="fill:#000000;fill-opacity:1;stroke:none;stroke-width:2;stroke-miterlimit:4;stroke-dasharray:none;stroke-opacity:1"
       d="M 25.828427,307.23407 23,310.0625 l -2.828427,-2.82843 -1.414214,1.41421 2.828427,2.82843 -2.828427,2.82843 1.414214,1.41421 L 23,312.89092 l 2.828427,2.82843 1.414214,-1.41421 -2.828427,-2.82843 2.828427,-2.82843 z"
       id="rect1045"
       inkscape:connector-curvature="0" />
  </g>
</svg>